<svg width="408" height="308" viewBox="0 0 408 308" fill="none" xmlns="http://www.w3.org/2000/svg">
<g clip-path="url(#clip0_27_182)">
<mask id="mask0_27_182" style="mask-type:luminance" maskUnits="userSpaceOnUse" x="0" y="0" width="408" height="308">
<path d="M408 0H0V307.988H408V0Z" fill="white"/>
</mask>
<g mask="url(#mask0_27_182)">
<path d="M235.119 14.9898C238.618 22.4373 231.203 24.5468 222.708 28.5386C214.213 32.5304 207.856 36.8928 204.356 29.4453C200.857 21.9978 198.017 7.21588 210.034 1.56884C222.466 -4.27273 231.619 7.54234 235.119 14.9898Z" fill="#0091E2"/>
<path d="M217.787 29.6361C224.103 29.6361 229.223 24.5161 229.223 18.2002C229.223 11.8844 224.103 6.7644 217.787 6.7644C211.471 6.7644 206.351 11.8844 206.351 18.2002C206.351 24.5161 211.471 29.6361 217.787 29.6361Z" fill="#FFB8B8"/>
<path d="M274.442 68.9159C274.046 68.399 273.651 67.8915 273.25 67.398C272.733 66.7554 272.213 66.1331 271.69 65.5309C265.763 58.6911 259.459 54.3842 252.517 53.9232H252.507L252.405 53.9139L238.572 67.398L233.869 71.9796L233.971 72.231L236.509 78.5493H280.97C278.967 75.2246 276.788 72.0089 274.442 68.9159Z" fill="#279AA9"/>
<path d="M205.351 22.8043L209.445 20.8806L208.875 14.9751L211.612 19.8623L213.569 18.9429L213.236 15.498L214.833 18.3488L229.371 11.5171C228.006 8.6113 225.542 6.36691 222.522 5.27772C219.501 4.18852 216.172 4.34372 213.266 5.70919L211.159 6.6993C208.253 8.06477 206.009 10.5286 204.92 13.5489C203.831 16.5692 203.986 19.8984 205.351 22.8043Z" fill="#0091E2"/>
<path d="M300.097 230.383H61.3149C59.2781 230.381 57.3254 229.571 55.8851 228.131C54.4448 226.69 53.6347 224.738 53.6324 222.701V79.2218C53.634 77.7295 54.2275 76.2989 55.2827 75.2437C56.3378 74.1886 57.7684 73.595 59.2606 73.5933H302.054C303.572 73.595 305.027 74.1988 306.101 75.2723C307.174 76.3457 307.778 77.801 307.78 79.3191V222.701C307.777 224.738 306.967 226.69 305.527 228.131C304.087 229.571 302.134 230.381 300.097 230.383Z" fill="#F2F2F2"/>
<path d="M68.7647 222.701H292.647C294.623 222.701 296.518 221.916 297.915 220.519C299.312 219.122 300.097 217.227 300.097 215.251V93.4721C300.097 91.4963 299.312 89.6014 297.915 88.2043C296.518 86.8072 294.623 86.0223 292.647 86.0223H68.7647C66.7889 86.0223 64.894 86.8072 63.4969 88.2043C62.0998 89.6014 61.3149 91.4963 61.3149 93.4721V215.251C61.3149 217.227 62.0998 219.122 63.4969 220.519C64.894 221.916 66.7889 222.701 68.7647 222.701Z" fill="white"/>
<path d="M307.673 78.7822H53.5245V74.8709C53.5275 72.8273 54.341 70.8683 55.7865 69.4237C57.232 67.9791 59.1914 67.1668 61.235 67.1652H299.962C302.006 67.1668 303.965 67.9791 305.411 69.4237C306.856 70.8683 307.67 72.8273 307.673 74.8709V78.7822Z" fill="#F6FF93"/>
<path d="M67.5372 74.9796C68.6387 74.9796 69.5316 74.0867 69.5316 72.9852C69.5316 71.8838 68.6387 70.9908 67.5372 70.9908C66.4358 70.9908 65.5428 71.8838 65.5428 72.9852C65.5428 74.0867 66.4358 74.9796 67.5372 74.9796Z" fill="white"/>
<path d="M75.1074 74.9796C76.2089 74.9796 77.1018 74.0867 77.1018 72.9852C77.1018 71.8838 76.2089 70.9908 75.1074 70.9908C74.006 70.9908 73.113 71.8838 73.113 72.9852C73.113 74.0867 74.006 74.9796 75.1074 74.9796Z" fill="white"/>
<path d="M82.6777 74.9796C83.7792 74.9796 84.6721 74.0867 84.6721 72.9852C84.6721 71.8838 83.7792 70.9908 82.6777 70.9908C81.5762 70.9908 80.6833 71.8838 80.6833 72.9852C80.6833 74.0867 81.5762 74.9796 82.6777 74.9796Z" fill="white"/>
<path d="M187.692 196.291H167.671C166.498 196.29 165.374 195.823 164.544 194.994C163.715 194.165 163.249 193.04 163.247 191.868V171.847C163.249 170.674 163.715 169.55 164.544 168.72C165.374 167.891 166.498 167.425 167.671 167.423H187.692C188.865 167.425 189.989 167.891 190.818 168.72C191.647 169.55 192.114 170.674 192.115 171.847V191.868C192.114 193.04 191.647 194.165 190.818 194.994C189.989 195.823 188.865 196.29 187.692 196.291ZM167.671 168.354C166.745 168.355 165.857 168.724 165.202 169.378C164.548 170.033 164.18 170.921 164.179 171.847V191.868C164.18 192.794 164.548 193.681 165.202 194.336C165.857 194.991 166.745 195.359 167.671 195.36H187.692C188.618 195.359 189.505 194.991 190.16 194.336C190.815 193.681 191.183 192.794 191.184 191.868V171.847C191.183 170.921 190.815 170.033 190.16 169.378C189.505 168.724 188.618 168.355 187.692 168.354H167.671Z" fill="#CCCCCC"/>
<path d="M169.271 187H167.344V181.729C167.344 181.585 167.344 181.406 167.344 181.193C167.352 180.981 167.361 180.759 167.369 180.53C167.378 180.3 167.386 180.096 167.395 179.917C167.352 179.968 167.259 180.062 167.114 180.198C166.978 180.326 166.85 180.44 166.731 180.542L165.685 181.385L164.753 180.223L167.688 177.888H169.271V187ZM178.182 187H171.814V185.66L174.098 183.35C174.557 182.874 174.928 182.478 175.208 182.163C175.489 181.84 175.693 181.551 175.821 181.295C175.949 181.032 176.012 180.751 176.012 180.453C176.012 180.087 175.91 179.815 175.706 179.636C175.51 179.458 175.242 179.368 174.902 179.368C174.553 179.368 174.213 179.449 173.881 179.611C173.549 179.772 173.2 180.002 172.835 180.3L171.788 179.062C172.052 178.832 172.328 178.62 172.618 178.424C172.915 178.228 173.256 178.071 173.639 177.952C174.03 177.824 174.498 177.76 175.042 177.76C175.638 177.76 176.148 177.871 176.574 178.092C177.008 178.305 177.34 178.598 177.569 178.973C177.808 179.339 177.927 179.755 177.927 180.223C177.927 180.606 177.867 180.959 177.748 181.283C177.637 181.606 177.471 181.921 177.25 182.227C177.038 182.525 176.774 182.835 176.459 183.159C176.144 183.473 175.787 183.818 175.387 184.192L174.213 185.29V185.379H178.182V187ZM182.039 176.765H188.42V178.258H182.039V176.765ZM182.052 179.815H188.484V181.27H182.052V179.815ZM181.988 182.84H188.395V184.32H181.988V182.84ZM180.993 176.765H182.563V180.989C182.563 183.21 182.218 186.336 180.061 188.149C179.832 187.83 179.206 187.255 178.874 187.051C180.814 185.405 180.993 182.942 180.993 180.989V176.765ZM187.706 176.765H189.326V186.209C189.326 187.115 189.109 187.574 188.522 187.83C187.91 188.098 187.004 188.123 185.677 188.123C185.587 187.664 185.294 186.923 185.038 186.515C185.945 186.566 187.004 186.553 187.31 186.553C187.604 186.541 187.706 186.451 187.706 186.183V176.765Z" fill="#0091E2"/>
<path d="M218.879 187H212.51V185.66L214.795 183.35C215.254 182.874 215.624 182.478 215.905 182.163C216.186 181.84 216.39 181.551 216.518 181.295C216.645 181.032 216.709 180.751 216.709 180.453C216.709 180.087 216.607 179.815 216.403 179.636C216.207 179.458 215.939 179.368 215.599 179.368C215.25 179.368 214.91 179.449 214.578 179.611C214.246 179.772 213.897 180.002 213.531 180.3L212.485 179.062C212.749 178.832 213.025 178.62 213.314 178.424C213.612 178.228 213.953 178.071 214.335 177.952C214.727 177.824 215.195 177.76 215.739 177.76C216.335 177.76 216.845 177.871 217.271 178.092C217.705 178.305 218.036 178.598 218.266 178.973C218.504 179.339 218.623 179.755 218.623 180.223C218.623 180.606 218.564 180.959 218.445 181.283C218.334 181.606 218.168 181.921 217.947 182.227C217.734 182.525 217.471 182.835 217.156 183.159C216.841 183.473 216.484 183.818 216.084 184.192L214.91 185.29V185.379H218.879V187ZM224.574 187H222.647V181.729C222.647 181.585 222.647 181.406 222.647 181.193C222.655 180.981 222.664 180.759 222.672 180.53C222.681 180.3 222.689 180.096 222.698 179.917C222.655 179.968 222.562 180.062 222.417 180.198C222.281 180.326 222.153 180.44 222.034 180.542L220.988 181.385L220.056 180.223L222.991 177.888H224.574V187ZM228.559 176.931H237.467V187.983H235.821V178.475H230.141V187.995H228.559V176.931ZM229.644 181.219H236.51V182.738H229.644V181.219ZM229.631 185.622H236.51V187.166H229.631V185.622Z" fill="#A94687"/>
<path d="M235.184 196.291H215.163C213.99 196.29 212.866 195.823 212.036 194.994C211.207 194.165 210.741 193.04 210.739 191.868V171.847C210.741 170.674 211.207 169.55 212.036 168.72C212.866 167.891 213.99 167.425 215.163 167.423H235.184C236.357 167.425 237.481 167.891 238.31 168.72C239.139 169.55 239.606 170.674 239.607 171.847V191.868C239.606 193.04 239.139 194.165 238.31 194.994C237.481 195.823 236.357 196.29 235.184 196.291ZM215.163 168.354C214.237 168.355 213.349 168.724 212.695 169.378C212.04 170.033 211.672 170.921 211.671 171.847V191.868C211.672 192.794 212.04 193.681 212.695 194.336C213.349 194.991 214.237 195.359 215.163 195.36H235.184C236.11 195.359 236.997 194.991 237.652 194.336C238.307 193.681 238.675 192.794 238.676 191.868V171.847C238.675 170.921 238.307 170.033 237.652 169.378C236.997 168.724 236.11 168.355 235.184 168.354H215.163Z" fill="#CCCCCC"/>
<path d="M140.2 196.291H120.178C119.006 196.29 117.881 195.823 117.052 194.994C116.223 194.165 115.757 193.04 115.755 191.868V171.847C115.757 170.674 116.223 169.55 117.052 168.72C117.881 167.891 119.006 167.425 120.178 167.423H140.2C141.372 167.425 142.497 167.891 143.326 168.72C144.155 169.55 144.622 170.674 144.623 171.847V191.868C144.622 193.04 144.155 194.165 143.326 194.994C142.497 195.823 141.372 196.29 140.2 196.291ZM120.178 168.354C119.253 168.355 118.365 168.724 117.71 169.378C117.056 170.033 116.687 170.921 116.686 171.847V191.868C116.687 192.794 117.056 193.681 117.71 194.336C118.365 194.991 119.253 195.359 120.178 195.36H140.2C141.125 195.359 142.013 194.991 142.668 194.336C143.322 193.681 143.691 192.794 143.692 191.868V171.847C143.691 170.921 143.322 170.033 142.668 169.378C142.013 168.724 141.125 168.355 140.2 168.354H120.178Z" fill="#CCCCCC"/>
<path d="M357.972 301.785L352.263 301.784L349.548 279.766L357.973 279.767L357.972 301.785Z" fill="#FFB8B8"/>
<path d="M359.428 307.318L341.022 307.317V307.084C341.022 306.143 341.207 305.212 341.567 304.343C341.927 303.474 342.455 302.684 343.12 302.019C343.785 301.353 344.575 300.826 345.444 300.466C346.313 300.106 347.245 299.92 348.186 299.92L359.428 299.921V307.318Z" fill="#2F2E41"/>
<path d="M381.252 301.785L375.544 301.784L372.828 279.766L381.253 279.767L381.252 301.785Z" fill="#FFB8B8"/>
<path d="M382.708 307.318L364.302 307.317V307.084C364.302 306.143 364.488 305.212 364.848 304.343C365.208 303.474 365.735 302.684 366.401 302.019C367.066 301.353 367.856 300.826 368.725 300.466C369.594 300.106 370.526 299.92 371.466 299.92H371.467L382.708 299.921V307.318Z" fill="#2F2E41"/>
<path d="M379.541 292.24L374.254 290.631C373.86 290.512 373.51 290.279 373.248 289.961C372.986 289.644 372.823 289.256 372.78 288.847L367.851 242.134C367.848 242.077 367.822 242.025 367.781 241.986C367.74 241.947 367.685 241.926 367.629 241.926C367.572 241.92 367.516 241.937 367.471 241.973C367.427 242.008 367.398 242.06 367.391 242.116L359.135 287.373C359.085 287.648 358.981 287.909 358.828 288.143C358.675 288.377 358.477 288.578 358.246 288.734C358.015 288.89 357.754 288.998 357.48 289.052C357.207 289.106 356.925 289.105 356.651 289.049L349.895 287.657C349.399 287.554 348.958 287.275 348.651 286.872C348.345 286.469 348.194 285.969 348.227 285.463L353.249 211.286L387.302 207.612L382.242 290.363C382.209 290.895 381.975 291.394 381.588 291.76C381.2 292.125 380.687 292.33 380.154 292.331C379.947 292.331 379.74 292.3 379.541 292.24Z" fill="#93FFBE"/>
<path d="M379.509 146.689C385.825 146.689 390.945 141.569 390.945 135.253C390.945 128.938 385.825 123.818 379.509 123.818C373.193 123.818 368.073 128.938 368.073 135.253C368.073 141.569 373.193 146.689 379.509 146.689Z" fill="#FFB8B8"/>
<path d="M353.196 211.722L360.58 165.23C360.973 162.758 361.887 160.398 363.263 158.307C364.638 156.216 366.444 154.442 368.558 153.103C370.673 151.764 373.048 150.891 375.527 150.541C378.005 150.192 380.529 150.374 382.932 151.076C387.132 152.291 390.729 155.028 393.019 158.753C395.31 162.477 396.129 166.922 395.317 171.219L387.592 212.738L353.196 211.722Z" fill="#00CA5D"/>
<path d="M382.666 220.04C383.237 219.663 383.719 219.165 384.077 218.582C384.435 217.998 384.66 217.344 384.738 216.663C384.815 215.983 384.743 215.295 384.525 214.646C384.308 213.997 383.951 213.403 383.479 212.907L391.113 198.123L382.516 199.041L376.585 212.939C375.804 213.787 375.361 214.891 375.34 216.043C375.319 217.196 375.721 218.315 376.471 219.191C377.221 220.066 378.265 220.636 379.407 220.792C380.549 220.949 381.708 220.681 382.666 220.04Z" fill="#FFB8B8"/>
<path d="M384.301 210.299C383.878 210.24 383.484 210.053 383.171 209.763L380.25 207.065C379.934 206.772 379.716 206.389 379.625 205.968C379.534 205.547 379.575 205.108 379.741 204.711L385.579 190.874L384.751 163.534C384.87 162.655 385.161 161.808 385.608 161.042C386.054 160.275 386.647 159.605 387.353 159.068C388.059 158.531 388.864 158.138 389.722 157.912C390.579 157.687 391.473 157.632 392.352 157.752C393.231 157.872 394.077 158.164 394.843 158.611C395.609 159.058 396.279 159.652 396.815 160.358C397.352 161.065 397.744 161.87 397.969 162.728C398.193 163.586 398.247 164.48 398.126 165.358L399.542 182.545C399.973 187.761 398.494 192.956 395.381 197.164L386.277 209.471C386.102 209.707 385.879 209.904 385.623 210.049C385.367 210.194 385.083 210.283 384.79 210.311C384.627 210.326 384.463 210.322 384.301 210.299Z" fill="#00CA5D"/>
<path d="M313.653 129.023C313.778 129.696 314.049 130.333 314.446 130.89C314.844 131.447 315.359 131.911 315.955 132.247C316.551 132.584 317.213 132.786 317.896 132.838C318.578 132.891 319.264 132.794 319.905 132.553L330.542 145.347L333.049 137.072L322.564 126.191C322.088 125.142 321.243 124.303 320.19 123.835C319.137 123.366 317.949 123.3 316.851 123.649C315.753 123.998 314.82 124.738 314.231 125.728C313.642 126.719 313.436 127.891 313.653 129.023Z" fill="#FFB8B8"/>
<path d="M321.986 134.326C322.205 133.96 322.531 133.67 322.92 133.494L326.544 131.857C326.937 131.681 327.374 131.629 327.797 131.71C328.22 131.79 328.608 131.998 328.909 132.306L339.375 143.077L364.875 152.974C365.638 153.426 366.304 154.025 366.836 154.735C367.368 155.445 367.755 156.252 367.974 157.112C368.193 157.971 368.241 158.866 368.115 159.744C367.988 160.622 367.69 161.466 367.237 162.229C366.784 162.991 366.185 163.657 365.474 164.188C364.764 164.719 363.955 165.105 363.095 165.323C362.236 165.541 361.341 165.588 360.464 165.461C359.586 165.333 358.742 165.034 357.98 164.58L341.601 159.183C336.63 157.545 332.422 154.158 329.762 149.651L321.978 136.469C321.829 136.216 321.734 135.934 321.701 135.641C321.667 135.349 321.696 135.053 321.785 134.772C321.834 134.616 321.901 134.466 321.986 134.326Z" fill="#00CA5D"/>
<path opacity="0.1" d="M388.785 174.907L388.319 189.806L379.741 204.711L386.903 188.101L388.785 174.907Z" fill="black"/>
<path d="M378.199 137.402C377.48 137.496 376.753 137.325 376.151 136.923C375.548 136.52 375.113 135.912 374.925 135.213C374.744 134.408 374.347 133.667 373.777 133.071C373.207 132.474 372.485 132.044 371.689 131.826C369.591 131.347 367.027 132.334 365.49 130.745C365.161 130.382 364.923 129.946 364.795 129.473C364.668 129 364.654 128.504 364.756 128.025C365.039 126.48 366.144 125.313 367.347 124.38C369.877 122.426 372.939 121.281 376.131 121.097C377.783 121.05 379.437 121.132 381.076 121.343C382.793 121.452 384.49 121.762 386.134 122.268C388.007 122.975 389.671 124.142 390.974 125.662C392.276 127.182 393.174 129.006 393.585 130.966C393.961 132.931 393.903 134.954 393.416 136.895C392.929 138.835 392.024 140.646 390.765 142.201C389.257 144.078 387.313 145.558 385.102 146.512C384.576 146.76 383.972 146.791 383.423 146.597C382.046 146.049 382.271 144.344 382.899 143.206C383.571 141.989 384.605 140.81 384.065 139.328C383.794 138.641 383.274 138.082 382.609 137.761C381.24 137.063 379.709 137.228 378.237 137.398L378.199 137.402Z" fill="#7DC49E"/>
<path d="M309.832 143.86H168.287C166.25 143.858 164.297 143.048 162.857 141.608C161.416 140.167 160.606 138.215 160.604 136.178V105.913C160.606 103.876 161.416 101.924 162.857 100.483C164.297 99.0432 166.25 98.233 168.287 98.2307H309.832C311.869 98.2331 313.821 99.0432 315.261 100.483C316.702 101.924 317.512 103.876 317.514 105.913V136.178C317.512 138.215 316.702 140.167 315.261 141.608C313.821 143.048 311.869 143.858 309.832 143.86Z" fill="white"/>
<path d="M309.832 144.093H168.287C166.188 144.091 164.176 143.256 162.692 141.772C161.208 140.288 160.374 138.276 160.371 136.178V105.913C160.374 103.815 161.208 101.803 162.692 100.319C164.176 98.835 166.188 98.0003 168.287 97.998H309.832C311.93 98.0003 313.942 98.835 315.426 100.319C316.91 101.803 317.745 103.815 317.747 105.913V136.178C317.745 138.276 316.91 140.288 315.426 141.772C313.942 143.256 311.93 144.091 309.832 144.093ZM168.287 98.9292C166.435 98.9313 164.66 99.6678 163.35 100.977C162.041 102.286 161.304 104.062 161.302 105.913V136.178C161.304 138.03 162.041 139.805 163.35 141.114C164.66 142.423 166.435 143.16 168.287 143.162H309.832C311.683 143.16 313.459 142.423 314.768 141.114C316.077 139.805 316.814 138.03 316.816 136.178V105.913C316.814 104.062 316.077 102.286 314.768 100.977C313.459 99.6678 311.683 98.9313 309.832 98.9292H168.287Z" fill="#3F3D56"/>
<path d="M292.604 136.411H185.514C183.477 136.408 181.524 135.598 180.084 134.158C178.644 132.718 177.834 130.765 177.831 128.728V112.898C177.834 110.861 178.644 108.908 180.084 107.468C181.524 106.027 183.477 105.217 185.514 105.215H292.604C294.641 105.217 296.594 106.027 298.034 107.468C299.474 108.908 300.284 110.861 300.287 112.898V128.728C300.284 130.765 299.474 132.718 298.034 134.158C296.594 135.598 294.641 136.408 292.604 136.411Z" fill="#F2F2F2"/>
<path d="M208.559 127.878C213.633 127.878 217.747 123.765 217.747 118.691C217.747 113.617 213.633 109.503 208.559 109.503C203.485 109.503 199.372 113.617 199.372 118.691C199.372 123.765 203.485 127.878 208.559 127.878Z" fill="#FF6584"/>
<path d="M285.949 135.484L272.981 124.607L260.236 113.918C259.9 113.636 259.475 113.482 259.036 113.483C258.597 113.484 258.172 113.64 257.837 113.923L245.134 124.661L242.031 127.284L237.352 123.36L223.134 111.435C222.798 111.153 222.373 110.999 221.934 111C221.495 111.001 221.07 111.156 220.735 111.44L206.563 123.419L192.168 135.587C192.095 135.649 192.042 135.731 192.018 135.824C191.994 135.916 191.998 136.014 192.031 136.103C192.064 136.193 192.124 136.27 192.202 136.325C192.28 136.379 192.374 136.409 192.469 136.408L221.982 136.351L231.324 136.333L231.233 136.411L259.08 136.357L285.651 136.306C285.746 136.306 285.84 136.276 285.918 136.221C285.996 136.166 286.055 136.089 286.088 135.999C286.12 135.909 286.125 135.812 286.1 135.72C286.075 135.627 286.022 135.545 285.949 135.484Z" fill="#3F3D56"/>
<path d="M281.254 61.4197C280.882 60.8154 280.391 60.2931 279.811 59.8849C279.23 59.4766 278.573 59.1909 277.878 59.045C277.624 58.9916 277.365 58.9589 277.106 58.9473L241.631 27.23C240.934 26.5138 240.004 26.0697 239.009 25.9775C238.813 25.9549 238.615 25.9487 238.418 25.9589C237.599 25.9961 236.81 26.2709 236.145 26.7499C235.48 27.2288 234.969 27.8911 234.675 28.6557C234.38 29.4204 234.315 30.2542 234.487 31.0553C234.659 31.8564 235.061 32.59 235.643 33.1665L249.225 45.0069L271.527 64.4461C271.546 64.8122 271.6 65.1756 271.69 65.531C271.957 66.5604 272.531 67.4844 273.335 68.1804C274.139 68.8764 275.136 69.3115 276.193 69.4281C277.157 69.5407 278.133 69.3794 279.01 68.9625C279.705 68.6375 280.321 68.1657 280.816 67.5797C280.867 67.5191 280.914 67.4633 280.961 67.3981C281.612 66.5496 281.989 65.5228 282.041 64.4547C282.093 63.3865 281.819 62.3277 281.254 61.4197Z" fill="#FFB8B8"/>
<path d="M220.576 91.9867L220.245 78.5492L219.966 67.3978L219.775 59.5942L219.398 44.3828C219.323 43.5684 219.013 42.7933 218.505 42.1521C217.998 41.511 217.314 41.0316 216.538 40.7723C215.763 40.5131 214.928 40.4854 214.137 40.6924C213.346 40.8995 212.632 41.3324 212.083 41.9383C211.954 42.0768 211.837 42.2264 211.734 42.3853C211.161 43.2063 210.903 44.2065 211.007 45.2023L211.836 67.3978L212.251 78.5492L212.781 92.7735C212.628 92.9825 212.49 93.2019 212.367 93.43C212.036 94.0579 211.836 94.7465 211.779 95.4541C211.722 96.1616 211.81 96.8734 212.037 97.546C212.273 98.2515 212.656 98.8988 213.161 99.4453C213.666 99.9918 214.281 100.425 214.966 100.717C215.65 101.009 216.389 101.152 217.132 101.137C217.876 101.123 218.609 100.951 219.281 100.633C220.063 100.264 220.741 99.7075 221.256 99.0137C221.772 98.32 222.108 97.51 222.236 96.6553C222.364 95.8006 222.279 94.9276 221.99 94.1133C221.7 93.2991 221.215 92.5687 220.576 91.9867Z" fill="#FFB8B8"/>
<path d="M252.517 53.9232L249.225 45.0067L243.898 30.5635C243.514 29.5127 242.898 28.5618 242.096 27.7816C241.294 27.0013 240.326 26.4117 239.265 26.0565C239.182 26.0285 239.093 26.0006 239.009 25.9773C237.981 25.6653 236.898 25.5795 235.834 25.7258C234.77 25.8721 233.75 26.247 232.845 26.8247L214.905 38.2042C213.262 39.2439 212.087 40.8817 211.629 42.7713C211.171 44.661 211.466 46.6547 212.451 48.3312C214.694 52.2105 217.139 55.97 219.775 59.5942C221.866 62.4391 225.758 62.7418 226.433 67.3979H239.661L253.052 55.3758L252.517 53.9232Z" fill="#8CF1FF"/>
<path d="M47.1031 162.895C53.0617 162.895 57.8921 158.065 57.8921 152.106C57.8921 146.148 53.0617 141.317 47.1031 141.317C41.1446 141.317 36.3142 146.148 36.3142 152.106C36.3142 158.065 41.1446 162.895 47.1031 162.895Z" fill="#A0616A"/>
<path d="M73.5901 144.68C73.6965 144.764 73.7995 144.854 73.8993 144.949C74.3949 145.416 74.7863 145.982 75.0478 146.611C75.3093 147.239 75.435 147.916 75.4166 148.597C75.3983 149.278 75.2364 149.947 74.9414 150.56C74.6464 151.174 74.2251 151.719 73.7051 152.158C73.5839 152.26 73.4574 152.355 73.3262 152.444L74.0563 177.095C74.0771 177.902 73.8372 178.695 73.3721 179.354C72.907 180.014 72.2416 180.507 71.4746 180.758L71.4301 180.768L51.4141 182.899C50.87 182.957 50.3197 182.907 49.7952 182.751C49.2706 182.595 48.7822 182.336 48.358 181.991C47.9339 181.645 47.5824 181.219 47.324 180.736C47.0655 180.254 46.9052 179.725 46.8522 179.18C46.7993 178.636 46.8547 178.086 47.0154 177.563C47.1761 177.04 47.4388 176.554 47.7884 176.133C48.138 175.711 48.5676 175.364 49.0523 175.11C49.5369 174.856 50.0672 174.7 50.6123 174.652L64.8805 173.396L67.3481 152.047C67.1867 151.904 67.0355 151.75 66.8957 151.586C66.1221 150.67 65.7163 149.5 65.7572 148.302C65.7981 147.104 66.2828 145.964 67.1171 145.103C67.9515 144.242 69.0759 143.722 70.2721 143.644C71.4683 143.566 72.6508 143.935 73.5901 144.68Z" fill="#A0616A"/>
<path d="M64.8724 302.261H70.2581L72.8199 281.489H64.8715L64.8724 302.261Z" fill="#A0616A"/>
<path d="M63.4989 300.503H74.1046C74.9921 300.503 75.8715 300.677 76.6915 301.017C77.5115 301.357 78.2566 301.855 78.8842 302.482C79.5118 303.11 80.0097 303.855 80.3493 304.675C80.689 305.495 80.8638 306.374 80.8638 307.261V307.481L63.4992 307.482L63.4989 300.503Z" fill="#2F2E41"/>
<path d="M11.345 294.815L15.9723 297.57L28.8012 281.033L21.9716 276.967L11.345 294.815Z" fill="#A0616A"/>
<path d="M11.0642 292.602L20.177 298.028C20.9396 298.482 21.6057 299.082 22.1365 299.793C22.6673 300.504 23.0528 301.313 23.2709 302.174C23.4891 303.034 23.5357 303.929 23.408 304.807C23.2803 305.686 22.9808 306.53 22.5267 307.293L22.4143 307.482L7.49414 298.598L11.0642 292.602Z" fill="#2F2E41"/>
<path d="M71.5287 294.924H65.4982C65.0099 294.925 64.5387 294.745 64.1756 294.418C63.8126 294.092 63.5835 293.642 63.5327 293.157L57.4531 236.009C57.4378 235.865 57.3755 235.73 57.276 235.625C57.1764 235.52 57.0451 235.451 56.9023 235.428C56.7594 235.405 56.613 235.43 56.4856 235.498C56.3582 235.567 56.2569 235.676 56.1973 235.807L45.2297 260.093L25.8121 291.756C25.5608 292.161 25.1717 292.463 24.7161 292.606C24.2604 292.748 23.7687 292.722 23.331 292.531L15.5738 289.118C15.3173 289.005 15.0878 288.839 14.9004 288.631C14.713 288.422 14.572 288.177 14.4868 287.91C14.4016 287.643 14.3742 287.361 14.4063 287.082C14.4383 286.804 14.5293 286.535 14.6729 286.295L32.523 256.406L37.9975 231.224C36.2757 220.303 43.657 204.067 43.7318 203.904L43.7684 203.824L64.1004 195.877L64.2024 196.002C72.2207 222.316 77.1067 250.633 73.499 293.113C73.4545 293.606 73.2281 294.065 72.8638 294.4C72.4995 294.734 72.0235 294.922 71.5287 294.924Z" fill="#FFB4FC"/>
<path d="M42.9493 206.485L42.8546 206.286C42.8094 206.191 38.2884 196.656 34.8033 186.465C34.1335 184.494 33.8803 182.405 34.0597 180.332C34.2392 178.258 34.8473 176.244 35.8456 174.418C36.8569 172.572 38.2404 170.957 39.9085 169.674C41.5766 168.392 43.493 167.469 45.5361 166.966C49.0831 166.116 52.8175 166.568 56.0589 168.241C59.3003 169.913 61.8331 172.694 63.1957 176.078C65.9601 182.991 65.079 190.369 64.2499 196.172L64.2334 196.288L64.1277 196.339L42.9493 206.485Z" fill="#E50089"/>
<path d="M60.1845 146.012H43.0529V138.544C46.8131 137.05 50.4926 135.78 52.7169 138.544C54.6974 138.544 56.5968 139.331 57.9972 140.731C59.3977 142.132 60.1845 144.031 60.1845 146.012Z" fill="#A94687"/>
<path d="M42.1044 137.226C31.8628 137.226 28.9962 150.064 28.9962 157.306C28.9962 161.345 30.8228 162.789 33.6931 163.278L34.7067 157.872L37.0809 163.511C37.8871 163.515 38.7342 163.499 39.6123 163.483L40.4172 161.825L42.2123 163.453C49.4017 163.464 55.2124 164.512 55.2124 157.306C55.2124 150.064 52.6984 137.226 42.1044 137.226Z" fill="#A94687"/>
<path d="M91.5435 154.802H71.5223C70.3496 154.801 69.2253 154.335 68.396 153.505C67.5668 152.676 67.1003 151.552 67.099 150.379V130.358C67.1003 129.185 67.5668 128.061 68.396 127.232C69.2253 126.402 70.3496 125.936 71.5223 125.935H91.5435C92.7162 125.936 93.8405 126.402 94.6697 127.232C95.499 128.061 95.9654 129.185 95.9668 130.358V150.379C95.9654 151.552 95.499 152.676 94.6697 153.505C93.8405 154.335 92.7162 154.801 91.5435 154.802Z" fill="white"/>
<path d="M91.5435 154.802H71.5223C70.3496 154.801 69.2253 154.335 68.396 153.505C67.5668 152.676 67.1003 151.552 67.099 150.379V130.358C67.1003 129.185 67.5668 128.061 68.396 127.232C69.2253 126.402 70.3496 125.936 71.5223 125.935H91.5435C92.7162 125.936 93.8405 126.402 94.6697 127.232C95.499 128.061 95.9654 129.185 95.9668 130.358V150.379C95.9654 151.552 95.499 152.676 94.6697 153.505C93.8405 154.335 92.7162 154.801 91.5435 154.802ZM71.5223 126.866C70.5964 126.867 69.7088 127.235 69.0542 127.89C68.3995 128.544 68.0312 129.432 68.0302 130.358V150.379C68.0312 151.305 68.3995 152.193 69.0542 152.847C69.7088 153.502 70.5964 153.87 71.5223 153.871H91.5435C92.4693 153.87 93.3569 153.502 94.0116 152.847C94.6663 152.193 95.0345 151.305 95.0355 150.379V130.358C95.0345 129.432 94.6663 128.544 94.0116 127.89C93.3569 127.235 92.4693 126.867 91.5435 126.866H71.5223Z" fill="#3F3D56"/>
<path d="M88.0514 146.654H75.0144C74.644 146.654 74.289 146.506 74.0271 146.245C73.7653 145.983 73.618 145.628 73.6176 145.257V135.48C73.618 135.109 73.7653 134.754 74.0271 134.492C74.289 134.23 74.644 134.083 75.0144 134.083H78.6845C78.9232 134.082 79.1581 134.143 79.3665 134.259C79.5749 134.375 79.7497 134.544 79.8742 134.747L80.8977 136.411H88.0514C88.4218 136.411 88.7768 136.558 89.0387 136.82C89.3006 137.082 89.4479 137.437 89.4483 137.808V145.257C89.4479 145.628 89.3006 145.983 89.0387 146.245C88.7768 146.506 88.4218 146.654 88.0514 146.654Z" fill="#F6FF93"/>
<path d="M87.6274 151.594C87.6925 151.713 87.7527 151.836 87.8079 151.962C88.0835 152.584 88.2245 153.258 88.2215 153.939C88.2186 154.62 88.0718 155.293 87.7907 155.913C87.5097 156.533 87.1008 157.087 86.5908 157.538C86.0808 157.989 85.4813 158.328 84.8314 158.531C84.6802 158.578 84.5266 158.616 84.3713 158.647L75.4785 181.65C75.1845 182.402 74.6559 183.039 73.9712 183.467C73.2865 183.895 72.4822 184.09 71.6776 184.024L71.6329 184.016L52.3582 178.214C51.8342 178.056 51.3466 177.796 50.9236 177.448C50.5006 177.101 50.1506 176.674 49.8939 176.19C49.6371 175.707 49.4786 175.178 49.4275 174.633C49.3765 174.088 49.4339 173.538 49.5965 173.016C49.759 172.493 50.0235 172.008 50.3746 171.588C50.7258 171.168 51.1566 170.822 51.6422 170.57C52.1279 170.317 52.6587 170.164 53.204 170.118C53.7494 170.072 54.2984 170.134 54.8195 170.301L68.4573 174.68L79.0157 155.962C78.9223 155.767 78.8428 155.567 78.7776 155.361C78.42 154.217 78.5002 152.981 79.0028 151.893C79.5054 150.804 80.3945 149.942 81.4975 149.472C82.6004 149.003 83.8384 148.96 84.9712 149.352C86.104 149.744 87.0507 150.543 87.6274 151.594Z" fill="#A0616A"/>
</g>
<path d="M122.991 177.826H137.525V179.792H122.991V177.826ZM129.184 173.978H131.298V189.486H129.184V173.978ZM128.755 178.917L130.505 179.495C129.019 182.979 126.575 186.134 123.734 187.934C123.387 187.422 122.71 186.646 122.248 186.233C124.973 184.746 127.483 181.823 128.755 178.917ZM131.678 178.999C132.983 181.807 135.559 184.68 138.251 186.134C137.772 186.53 137.079 187.323 136.748 187.868C133.99 186.084 131.546 182.93 130.026 179.577L131.678 178.999Z" fill="#DD9200"/>
</g>
<defs>
<clipPath id="clip0_27_182">
<rect width="408" height="308" fill="white"/>
</clipPath>
</defs>
</svg>
