<svg width="135" height="37" viewBox="0 0 135 37" fill="none" xmlns="http://www.w3.org/2000/svg">
<path fill-rule="evenodd" clip-rule="evenodd" d="M2.14646 12.0713L10.5223 21H13.0655L3.94326 11.3249L12.9825 1.67749H10.5223L2.14646 10.7168V1.67749H0.211449V21H2.14646V12.0713ZM15.895 2.64499C16.1714 2.92142 16.5032 3.05964 16.8902 3.05964C17.2772 3.05964 17.6089 2.92142 17.8853 2.64499C18.1617 2.36856 18.3 2.02763 18.3 1.6222C18.3 1.21677 18.1617 0.885051 17.8853 0.627049C17.6089 0.350618 17.2772 0.212402 16.8902 0.212402C16.5032 0.212402 16.1714 0.350618 15.895 0.627049C15.6186 0.885051 15.4804 1.21677 15.4804 1.6222C15.4804 2.02763 15.6186 2.36856 15.895 2.64499ZM17.8577 21V5.90688H15.9226V21H17.8577ZM24.1745 14.2274L30.3942 21H33.0203L25.8055 13.4258L32.965 5.90688H30.256L24.1745 12.6518V0.544121H22.2395V21H24.1745V14.2274ZM37.4562 14.2274L43.6759 21H46.3019L39.0871 13.4258L46.2467 5.90688H43.5376L37.4562 12.6518V0.544121H35.5212V21H37.4562V14.2274ZM48.8304 9.36226C48.2223 10.5233 47.9182 11.8778 47.9182 13.4258C47.9182 14.9738 48.2223 16.3375 48.8304 17.517C49.457 18.6964 50.3139 19.6086 51.4012 20.2536C52.507 20.8986 53.7417 21.2211 55.1054 21.2211C56.5428 21.2211 57.7776 20.8894 58.8096 20.226C59.86 19.5441 60.6248 18.6872 61.104 17.6552V21H63.039V5.90688H61.104V9.22404C60.6432 8.19204 59.8877 7.34432 58.8372 6.68088C57.8052 6.01745 56.5705 5.68573 55.133 5.68573C53.7509 5.68573 52.507 6.00823 51.4012 6.65324C50.3139 7.27982 49.457 8.18282 48.8304 9.36226ZM60.3576 10.2468C60.8552 11.1683 61.104 12.2371 61.104 13.4534C61.104 14.6697 60.8552 15.7386 60.3576 16.66C59.86 17.5815 59.1782 18.291 58.312 18.7885C57.4643 19.2861 56.5244 19.5349 55.4924 19.5349C54.4235 19.5349 53.4653 19.2953 52.6175 18.8162C51.7698 18.3186 51.0972 17.6091 50.5996 16.6877C50.1204 15.7478 49.8809 14.6605 49.8809 13.4258C49.8809 12.1726 50.1204 11.0946 50.5996 10.1916C51.0972 9.27012 51.7698 8.56983 52.6175 8.09068C53.4653 7.61153 54.4235 7.37196 55.4924 7.37196C56.5244 7.37196 57.4643 7.62075 58.312 8.11832C59.1782 8.6159 59.86 9.3254 60.3576 10.2468ZM67.7882 9.1964C66.9405 10.3758 66.3784 11.758 66.1019 13.3429C65.9914 13.9694 65.9361 14.5684 65.9361 15.1397C65.9361 17.0194 66.5074 18.5121 67.65 19.6178C68.811 20.7051 70.359 21.2488 72.294 21.2488C74.1553 21.2488 75.7954 20.7604 77.2145 19.7837C78.6519 18.807 79.73 17.4893 80.4487 15.8307H76.2746C75.5375 17.2313 74.3949 17.9316 72.8469 17.9316C71.9254 17.9316 71.2067 17.6552 70.6907 17.1023C70.1747 16.531 69.9167 15.7202 69.9167 14.6697C69.9167 14.3012 69.9628 13.8589 70.0549 13.3429C70.3129 11.8686 70.8289 10.7352 71.6029 9.94277C72.3954 9.1319 73.3444 8.72647 74.4502 8.72647C75.2242 8.72647 75.8415 8.91997 76.3022 9.30697C76.763 9.67555 77.0486 10.1916 77.1592 10.855H81.3333C81.2043 9.12269 80.5961 7.7866 79.5088 6.84674C78.44 5.90688 76.9565 5.43694 75.0583 5.43694C73.584 5.43694 72.2111 5.76866 70.9395 6.4321C69.6863 7.0771 68.6359 7.99854 67.7882 9.1964ZM85.7164 20.4471C86.73 20.9816 87.891 21.2488 89.1995 21.2488C90.9502 21.2488 92.5443 20.8433 93.9817 20.0325C95.4376 19.2032 96.5802 18.079 97.4095 16.66C98.2387 15.241 98.6534 13.6562 98.6534 11.9054C98.6534 10.6338 98.3678 9.50969 97.7965 8.53297C97.2436 7.55625 96.4512 6.80067 95.4192 6.26624C94.4056 5.71337 93.2446 5.43694 91.9361 5.43694C90.1854 5.43694 88.5913 5.85159 87.1539 6.68088C85.7349 7.51017 84.6107 8.64354 83.7814 10.081C82.9706 11.5 82.5651 13.0756 82.5651 14.8079C82.5651 16.0795 82.8416 17.2037 83.3944 18.1804C83.9473 19.1571 84.7213 19.9127 85.7164 20.4471ZM92.2402 17.13C91.4846 17.6644 90.6461 17.9316 89.7247 17.9316C88.7848 17.9316 88.02 17.6368 87.4303 17.047C86.859 16.4573 86.5734 15.6188 86.5734 14.5315C86.5734 13.5364 86.7761 12.5965 87.1815 11.7119C87.587 10.8089 88.149 10.0902 88.8677 9.55576C89.6049 9.02133 90.4434 8.75411 91.3833 8.75411C92.3231 8.75411 93.0971 9.05819 93.7053 9.66633C94.3319 10.2561 94.6451 11.1038 94.6451 12.2095C94.6451 13.1862 94.4332 14.1169 94.0094 15.0014C93.5855 15.886 92.9958 16.5955 92.2402 17.13ZM101.99 9.16876C101.179 10.3666 100.635 11.7396 100.359 13.2876C100.248 13.9142 100.193 14.5131 100.193 15.0844C100.193 16.3191 100.433 17.4064 100.912 18.3463C101.409 19.2677 102.091 19.9864 102.957 20.5024C103.842 21 104.846 21.2488 105.97 21.2488C107.113 21.2488 108.154 21.0184 109.094 20.5577C110.052 20.097 110.836 19.4888 111.444 18.7333L111.029 21H114.927L118.548 0.544121H114.65L113.351 7.81425C112.946 7.09553 112.328 6.52424 111.499 6.10038C110.67 5.65809 109.757 5.43694 108.762 5.43694C107.454 5.43694 106.201 5.75945 105.003 6.40445C103.823 7.04946 102.819 7.97089 101.99 9.16876ZM112.494 12.2924C112.494 12.5136 112.457 12.8637 112.384 13.3429C112.218 14.2643 111.886 15.0659 111.388 15.7478C110.909 16.4297 110.329 16.9549 109.647 17.3235C108.965 17.6736 108.265 17.8487 107.546 17.8487C106.588 17.8487 105.795 17.5354 105.169 16.9088C104.542 16.2638 104.229 15.3885 104.229 14.2827C104.229 13.9694 104.257 13.6377 104.312 13.2876C104.478 12.3661 104.809 11.5737 105.307 10.9103C105.805 10.2284 106.385 9.71241 107.048 9.36226C107.73 9.01211 108.431 8.83704 109.149 8.83704C110.108 8.83704 110.9 9.14112 111.527 9.74926C112.172 10.3574 112.494 11.2051 112.494 12.2924ZM132.804 7.06789C131.662 5.98059 130.114 5.43694 128.16 5.43694C126.649 5.43694 125.258 5.75945 123.986 6.40445C122.715 7.04946 121.646 7.97089 120.78 9.16876C119.932 10.3666 119.37 11.758 119.093 13.3429C118.983 13.951 118.928 14.5315 118.928 15.0844C118.928 16.9825 119.517 18.4845 120.697 19.5902C121.876 20.6959 123.443 21.2488 125.396 21.2488C127.202 21.2488 128.815 20.7789 130.234 19.839C131.671 18.8807 132.731 17.6644 133.413 16.1901H129.239C128.888 16.743 128.428 17.1945 127.856 17.5446C127.303 17.8763 126.64 18.0422 125.866 18.0422C124.945 18.0422 124.198 17.775 123.627 17.2405C123.074 16.6877 122.798 15.9321 122.798 14.9738C122.798 14.7342 122.807 14.5499 122.825 14.4209H134.021C134.15 14.0155 134.27 13.5364 134.38 12.9835C134.472 12.5228 134.518 11.9976 134.518 11.4078C134.518 9.58341 133.947 8.13675 132.804 7.06789ZM130.593 11.4355C130.593 11.5645 130.575 11.7764 130.538 12.0713H123.24C123.553 11.0024 124.097 10.1639 124.871 9.55576C125.645 8.92919 126.52 8.6159 127.497 8.6159C128.418 8.6159 129.165 8.86469 129.736 9.36226C130.307 9.85984 130.593 10.5509 130.593 11.4355ZM38.3199 36.4342C38.819 36.4342 39.345 36.3996 39.8979 36.3305C40.4507 36.2614 41.0189 36.1654 41.6025 36.0426L41.6371 33.9578L41.1418 33.7044L42.1669 32.6218C41.8982 32.376 41.6524 32.1188 41.4298 31.8501C41.2148 31.5813 41.0113 31.301 40.8193 31.0092C41.1648 30.9325 41.4912 30.8557 41.7983 30.7789C42.1132 30.6944 42.4165 30.6138 42.7082 30.537L42.5355 28.7172L42.0632 28.4753L41.8905 26.9319L40.7387 26.356C40.4622 26.4481 40.182 26.5326 39.8979 26.6094C39.6214 26.6862 39.3412 26.763 39.0571 26.8397L39.0225 26.7246L37.8707 26.1487L36.0739 26.7591C36.1123 26.8973 36.1507 27.0202 36.1891 27.1277C36.2275 27.2275 36.262 27.3273 36.2928 27.4272C35.9165 27.4809 35.5402 27.5308 35.164 27.5769C34.7877 27.623 34.3961 27.6614 33.9892 27.6921L34.185 29.5004L34.3808 29.5925L34.0583 29.6156L33.7588 29.6386L33.9776 31.493L34.8876 31.9422C34.6495 32.1495 34.4614 32.4068 34.3232 32.7139C34.185 33.0134 34.1159 33.3781 34.1159 33.8081C34.1159 34.4147 34.2963 34.9138 34.6572 35.3054C35.0181 35.6894 35.5134 35.9735 36.143 36.1578C36.7803 36.3421 37.506 36.4342 38.3199 36.4342ZM39.2874 33.8311C39.6713 33.7467 40.0284 33.6545 40.3586 33.5547L40.3355 35.3745C39.7597 35.4974 39.1876 35.6011 38.6194 35.6855C38.0512 35.77 37.5175 35.8122 37.0184 35.8122C36.4886 35.8122 36.0125 35.7508 35.5902 35.6279C35.1755 35.5051 34.8453 35.2978 34.5996 35.006C34.3616 34.7142 34.2387 34.3149 34.231 33.8081V33.7505C34.231 33.2668 34.3309 32.8636 34.5305 32.5411C34.7301 32.2109 34.9912 31.9537 35.3137 31.7694C35.6439 31.5775 36.0086 31.4431 36.4079 31.3663C36.8149 31.2818 37.218 31.2396 37.6173 31.2396H37.8362C37.9053 31.2396 37.9744 31.2434 38.0435 31.2511L37.9053 30.9977C37.8592 30.9133 37.8131 30.8211 37.767 30.7213C37.0913 30.8518 36.431 30.9747 35.786 31.0899C35.141 31.1974 34.5689 31.2895 34.0698 31.3663L33.8855 29.7538C34.3001 29.7307 34.7916 29.6808 35.3598 29.6041C35.928 29.5273 36.5154 29.4274 37.122 29.3046C37.0913 29.2432 37.0645 29.1817 37.0414 29.1203C37.0184 29.0589 36.9953 29.0013 36.9723 28.9475C36.4962 29.0397 36.0278 29.1203 35.5671 29.1894C35.1064 29.2585 34.6764 29.3199 34.2771 29.3737L34.1159 27.8073C34.4768 27.7765 34.853 27.7381 35.2446 27.6921C35.6439 27.6383 36.0432 27.5807 36.4425 27.5193L36.3273 27.1738L36.2121 26.8282L37.7786 26.2984L38.055 27.2083C38.5311 27.1008 38.9879 26.9895 39.4256 26.8743C39.8633 26.7591 40.2664 26.6401 40.635 26.5172L40.8078 28.0722C40.5237 28.1566 40.1897 28.2449 39.8057 28.3371C39.4295 28.4292 39.0263 28.5214 38.5963 28.6135C38.6194 28.6673 38.6424 28.7248 38.6654 28.7863C38.6885 28.8477 38.7154 28.9053 38.7461 28.959C39.2452 28.8515 39.7136 28.7402 40.1513 28.625C40.5889 28.5098 40.9652 28.3985 41.28 28.291L41.4298 29.8805C41.1687 29.9496 40.8731 30.0264 40.5429 30.1108C40.2204 30.1876 39.8672 30.2683 39.4832 30.3527C39.6829 30.6829 39.8979 30.9939 40.1282 31.2857C40.3586 31.5698 40.5966 31.827 40.8423 32.0574L39.6675 33.2898C39.4141 33.1055 39.1031 32.9711 38.7346 32.8867C38.366 32.8022 38.0012 32.76 37.6404 32.76C37.3178 32.76 37.0145 32.7907 36.7304 32.8521C36.454 32.9135 36.2313 33.0018 36.0624 33.117C35.8935 33.2322 35.809 33.3743 35.809 33.5432C35.809 33.7428 35.928 33.8887 36.1661 33.9809C36.4118 34.0653 36.7228 34.1076 37.099 34.1076C37.4215 34.1076 37.7709 34.0845 38.1471 34.0385C38.5234 33.9847 38.9035 33.9156 39.2874 33.8311ZM39.2413 33.4626C39.441 33.4856 39.6368 33.524 39.8288 33.5777C39.3527 33.7006 38.8728 33.8043 38.389 33.8887C37.9053 33.9732 37.4714 34.0231 37.0875 34.0385C37.1259 33.8388 37.2948 33.6891 37.5943 33.5893C37.9014 33.4818 38.2585 33.428 38.6654 33.428C38.8497 33.428 39.0417 33.4395 39.2413 33.4626ZM50.0682 33.0134C49.3541 33.3973 48.2753 33.6008 46.8317 33.6238L47.4882 35.4897L48.64 36.0656C49.7534 36.0042 50.7055 35.7815 51.4964 35.3976C52.2873 35.0136 52.8901 34.5184 53.3048 33.9118C53.7271 33.3052 53.9382 32.6333 53.9382 31.8961C53.9382 31.6504 53.9152 31.4009 53.8691 31.1475C53.7463 30.5178 53.5274 30.0225 53.2126 29.6616C52.9055 29.2931 52.5254 29.032 52.0723 28.8784C51.6193 28.7248 51.1125 28.6481 50.552 28.6481C50.0298 28.6481 49.4693 28.7018 48.8703 28.8093C48.2791 28.9091 47.6686 29.0397 47.039 29.2009C46.4093 29.3622 45.7759 29.5311 45.1385 29.7077L45.5417 31.6082L46.6935 32.1841C47.016 32.0535 47.3653 31.9192 47.7416 31.7809C48.1255 31.6427 48.5133 31.516 48.9049 31.4009C49.3042 31.278 49.6881 31.1782 50.0567 31.1014C50.4329 31.0246 50.7746 30.9862 51.0818 30.9862L51.1048 31.0899C51.1202 31.159 51.1317 31.2281 51.1394 31.2972C51.1471 31.3586 51.1509 31.42 51.1509 31.4815C51.1509 32.1111 50.79 32.6218 50.0682 33.0134ZM50.2986 34.7295C49.5384 35.0981 48.6246 35.3131 47.5573 35.3745L46.9814 33.739C48.402 33.716 49.4693 33.4971 50.1834 33.0825C50.9052 32.6678 51.2661 32.1342 51.2661 31.4815C51.2661 31.4124 51.2622 31.3433 51.2546 31.2742C51.2469 31.205 51.2354 31.1359 51.22 31.0668C51.1663 30.7981 51.0204 30.61 50.7823 30.5025C50.5443 30.395 50.2563 30.3412 49.9185 30.3412C49.5038 30.3412 49.0393 30.4026 48.5248 30.5255C48.018 30.6407 47.5074 30.7866 46.9929 30.9632C46.4861 31.1321 46.0293 31.2972 45.6223 31.4584L45.2767 29.7999C45.7835 29.677 46.3172 29.5426 46.8777 29.3967C47.4383 29.2508 47.9988 29.1241 48.5594 29.0166C49.1199 28.9015 49.6459 28.8439 50.1373 28.8439C50.7593 28.8439 51.293 28.9706 51.7383 29.224C52.1837 29.4774 52.4716 29.9342 52.6022 30.5946C52.6252 30.7175 52.6444 30.8403 52.6598 30.9632C52.6751 31.086 52.6828 31.2127 52.6828 31.3433C52.6828 32.0574 52.4755 32.7101 52.0608 33.3013C51.6539 33.8849 51.0664 34.361 50.2986 34.7295ZM63.4751 33.1285C63.5212 32.6601 63.5519 32.1994 63.5672 31.7464L64.719 32.3338L66.5043 31.2166C66.3661 30.8403 66.1933 30.441 65.986 30.0187C65.7864 29.5887 65.5714 29.1702 65.341 28.7632C65.1106 28.3563 64.8764 27.9954 64.6384 27.6806L63.4866 27.1047L61.8741 28.1298C61.9432 28.2142 62.02 28.3179 62.1045 28.4407C62.1966 28.5636 62.2772 28.6788 62.3463 28.7863L62.2081 28.7172C62.116 28.6634 62.0008 28.6058 61.8626 28.5444C61.7321 28.4753 61.5977 28.4215 61.4595 28.3832L61.7474 26.9319L60.5956 26.356L58.6491 26.3099C58.603 26.7246 58.5531 27.1162 58.4994 27.4848C58.4456 27.8533 58.3842 28.2219 58.3151 28.5905C58.0463 28.6212 57.7622 28.6519 57.4627 28.6826C57.1633 28.7057 56.8369 28.7325 56.4837 28.7632L56.5989 30.7904L57.6816 31.3317C57.6125 31.6159 57.5011 31.9767 57.3476 32.4144C57.2017 32.8521 57.0289 33.3128 56.8292 33.7966C56.6373 34.2803 56.4338 34.7411 56.2188 35.1787L59.1328 36.6991L59.4323 35.9504L60.3653 36.4112C60.9335 36.4035 61.4019 36.3421 61.7704 36.2269C62.139 36.1117 62.4308 35.9581 62.6458 35.7662C62.8685 35.5742 63.0297 35.3553 63.1296 35.1096C63.2371 34.8562 63.31 34.5952 63.3484 34.3264C63.3945 33.9886 63.4367 33.5893 63.4751 33.1285ZM60.9296 35.4321C60.5457 35.6087 60.0044 35.7009 59.3056 35.7086L58.9716 33.7505C59.1559 33.7582 59.321 33.7697 59.4669 33.7851C59.6128 33.7927 59.7433 33.7966 59.8585 33.7966C60.0888 33.7966 60.2578 33.7544 60.3653 33.6699C60.4728 33.5854 60.538 33.4088 60.5611 33.1401C60.5841 32.8943 60.6071 32.6179 60.6302 32.3108C60.6532 31.9959 60.6724 31.6811 60.6878 31.3663C60.7031 31.0515 60.7108 30.775 60.7108 30.537C60.7185 30.2683 60.6187 30.1339 60.4113 30.1339H60.3422C60.3192 30.1339 60.2923 30.1377 60.2616 30.1454L59.6627 30.203C59.4323 31.1859 59.1712 32.1687 58.8794 33.1516C58.5953 34.1268 58.2767 35.0597 57.9235 35.9504L56.3685 35.1327C56.7217 34.4109 57.0366 33.6545 57.313 32.8636C57.5894 32.0727 57.8313 31.2665 58.0386 30.4449C57.8236 30.4756 57.6048 30.5101 57.3821 30.5485C57.1594 30.5869 56.9329 30.6253 56.7025 30.6637L56.5989 28.8784C56.9137 28.8477 57.2247 28.817 57.5318 28.7863C57.839 28.7556 58.1346 28.7248 58.4187 28.6941C58.4878 28.3102 58.5493 27.9339 58.603 27.5654C58.6644 27.1891 58.7144 26.8129 58.7527 26.4366L60.4459 26.4712L60.0428 28.5098L60.4574 28.4638C60.5342 28.4561 60.6071 28.4523 60.6762 28.4523C60.7453 28.4446 60.8106 28.4407 60.872 28.4407C61.3788 28.4407 61.7474 28.5674 61.9778 28.8208C62.2081 29.0742 62.3233 29.5004 62.3233 30.0993V30.226C62.3003 30.9017 62.2657 31.5544 62.2196 32.1841C62.1813 32.806 62.1352 33.3243 62.0814 33.739C62.0354 34.0845 61.9279 34.407 61.7589 34.7065C61.59 35.006 61.3136 35.2478 60.9296 35.4321ZM64.719 29.4658C64.9187 29.8728 65.0838 30.2529 65.2143 30.6061L63.6479 31.5851C63.5634 31.1859 63.4329 30.7674 63.2563 30.3297C63.0797 29.892 62.8839 29.4812 62.6688 29.0973C62.4538 28.7133 62.2427 28.3985 62.0354 28.1528L63.4521 27.2544C63.6671 27.5385 63.8821 27.8764 64.0971 28.268C64.3198 28.6596 64.5271 29.0589 64.719 29.4658ZM72.4361 35.5358C72.9736 35.4897 73.4957 35.4475 74.0025 35.4091L75.0967 35.9389L77.0202 35.7777C76.9972 35.3016 76.978 34.6988 76.9626 33.9694C76.9549 33.2399 76.9511 32.4797 76.9511 31.6888C76.9511 30.944 76.9549 30.2183 76.9626 29.5119C76.978 28.7978 76.9933 28.1797 77.0087 27.6575L75.8569 27.0816C75.5114 27.1277 75.1006 27.1776 74.6245 27.2314L73.1041 27.3811C72.5666 27.4272 72.0214 27.4732 71.4686 27.5193C70.9234 27.5654 70.4012 27.6076 69.9021 27.646C69.403 27.6844 68.9576 27.7151 68.566 27.7381V29.7307L69.7178 30.3066C70.1478 30.2529 70.6124 30.203 71.1115 30.1569C71.6183 30.1032 72.1212 30.0533 72.6204 30.0072C73.1195 29.9534 73.5763 29.9112 73.991 29.8805V30.6752V31.7234C73.991 32.0919 73.9872 32.4605 73.9795 32.8291C73.5418 32.8751 73.0734 32.9212 72.5743 32.9673C72.0752 33.0057 71.5722 33.0441 71.0654 33.0825C70.5663 33.1209 70.0941 33.1554 69.6487 33.1861C69.211 33.2092 68.8348 33.2245 68.52 33.2322V35.2363L69.6718 35.8007C70.025 35.7546 70.4396 35.7086 70.9157 35.6625C71.3995 35.6241 71.9062 35.5819 72.4361 35.5358ZM75.7072 34.0039C75.7148 34.4262 75.7264 34.7871 75.7417 35.0866L74.0601 35.2363L74.0831 34.6144C73.6531 34.6451 73.1847 34.6835 72.6779 34.7295C72.1788 34.7679 71.6759 34.8102 71.1691 34.8562C70.67 34.9023 70.1977 34.9484 69.7524 34.9944C69.3147 35.0328 68.9423 35.0712 68.6351 35.1096V33.3474C68.9269 33.3397 69.2917 33.3243 69.7293 33.3013C70.167 33.2706 70.6393 33.236 71.1461 33.1977C71.6528 33.1516 72.1596 33.1093 72.6664 33.071C73.1809 33.0249 73.657 32.9788 74.0947 32.9327C74.1023 32.4259 74.1062 31.9192 74.1062 31.4124V30.0187V29.0857C73.8681 29.1011 73.5341 29.128 73.1041 29.1664C72.6741 29.1971 72.198 29.2393 71.6759 29.2931C71.1537 29.3391 70.6316 29.389 70.1094 29.4428C69.5873 29.4966 69.1112 29.5503 68.6812 29.6041V27.8418C69.0498 27.8188 69.476 27.7919 69.9597 27.7612C70.4511 27.7228 70.9656 27.6844 71.5031 27.646C72.0406 27.5999 72.5704 27.5539 73.0926 27.5078L74.5669 27.3581C75.0276 27.3043 75.4154 27.2582 75.7302 27.2198C75.7148 27.7113 75.7033 28.2987 75.6956 28.9821C75.688 29.6655 75.6841 30.3681 75.6841 31.0899V32.6102C75.6918 33.1093 75.6995 33.5739 75.7072 34.0039ZM87.5131 32.4029C88.0813 32.3492 88.5842 32.3069 89.0219 32.2762V30.2145L87.8701 29.6386C87.4324 29.6847 86.9256 29.7346 86.3497 29.7883C85.7815 29.8421 85.1788 29.8997 84.5414 29.9611L82.6525 30.1224C82.0305 30.1761 81.4393 30.226 80.8787 30.2721C80.3182 30.3105 79.8306 30.345 79.4159 30.3758V32.4375L80.5677 33.0134C80.9901 32.9673 81.4777 32.9212 82.0305 32.8751C82.5911 32.8214 83.1861 32.7676 83.8158 32.7139C84.4454 32.6525 85.0751 32.5987 85.7047 32.5526C86.3421 32.4989 86.9448 32.449 87.5131 32.4029ZM86.3037 29.9035C86.8565 29.8498 87.3403 29.8037 87.7549 29.7653V31.5967C87.3403 31.6274 86.8527 31.6658 86.2922 31.7118C85.7393 31.7579 85.1519 31.8078 84.5299 31.8616C83.9079 31.9076 83.2898 31.9576 82.6755 32.0113C82.0612 32.0651 81.4815 32.1188 80.9363 32.1726C80.3911 32.2263 79.9227 32.2724 79.5311 32.3108V30.4794C79.9304 30.4564 80.4026 30.4257 80.9478 30.3873C81.493 30.3412 82.0727 30.2913 82.687 30.2375C83.3013 30.1838 83.9195 30.13 84.5414 30.0763C85.1634 30.0149 85.7508 29.9573 86.3037 29.9035ZM97.2918 28.2334C97.4761 28.4331 97.6604 28.6442 97.8447 28.8669L98.9964 29.4428L100.713 27.6806C100.521 27.4732 100.329 27.2813 100.137 27.1047C99.9448 26.928 99.7413 26.7553 99.5263 26.5863L98.3745 26.0105L96.7044 27.6345C96.9117 27.8264 97.1075 28.0261 97.2918 28.2334ZM98.3745 26.1717C98.743 26.4558 99.0848 26.7668 99.3996 27.1047L98.7315 27.8073C98.5856 27.646 98.4282 27.4809 98.2593 27.312C98.0904 27.1354 97.9138 26.9703 97.7295 26.8167L98.3745 26.1717ZM93.5139 34.7986C93.5062 35.4206 93.4947 35.9389 93.4793 36.3536L94.6311 36.9295L96.5892 36.7452C96.5815 36.3536 96.5738 35.8698 96.5662 35.2939C96.5585 34.7103 96.5508 34.0922 96.5431 33.4395V31.493C96.904 31.685 97.2611 31.8923 97.6143 32.115C97.9752 32.3376 98.2977 32.5603 98.5818 32.783L99.7336 33.3589L100.782 31.4584C100.244 31.1206 99.6031 30.7597 98.8582 30.3758C98.1134 29.9841 97.3455 29.6156 96.5546 29.27C96.5623 28.7402 96.57 28.2603 96.5777 27.8303C96.5854 27.4003 96.593 27.0547 96.6007 26.7937L95.4489 26.2178L93.5024 26.356C93.5101 26.6017 93.5177 26.9434 93.5254 27.3811C93.5331 27.8188 93.5369 28.314 93.5369 28.8669C93.5446 29.4198 93.5485 29.9995 93.5485 30.6061C93.5485 31.3202 93.5446 32.042 93.5369 32.7715C93.5369 33.501 93.5293 34.1767 93.5139 34.7986ZM97.741 29.9611C98.3322 30.2683 98.9081 30.5908 99.4687 30.9286L98.5357 32.6102C98.2593 32.3952 97.933 32.1726 97.5567 31.9422C97.1805 31.7118 96.7927 31.493 96.3934 31.2857C95.9941 31.0707 95.6217 30.8902 95.2762 30.7443V32.7485C95.2838 33.4242 95.2877 34.0538 95.2877 34.6374C95.2953 35.2133 95.303 35.6855 95.3107 36.0541L93.5945 36.2154C93.6099 35.8237 93.6214 35.3246 93.6291 34.718C93.6444 34.1114 93.6521 33.451 93.6521 32.7369C93.6598 32.0228 93.6636 31.3125 93.6636 30.6061C93.6636 30.0072 93.6598 29.439 93.6521 28.9015C93.6521 28.3563 93.6483 27.8725 93.6406 27.4502C93.6329 27.0279 93.6252 26.7015 93.6176 26.4712L95.3222 26.3445C95.3145 26.5518 95.3069 26.8513 95.2992 27.2429C95.2992 27.6268 95.2953 28.0722 95.2877 28.579C95.2877 29.0781 95.2838 29.6117 95.2762 30.1799L96.0709 29.1894C96.593 29.3967 97.1497 29.654 97.741 29.9611ZM98.0405 27.4617C98.2094 27.6306 98.3706 27.8034 98.5242 27.98L97.8447 28.6941C97.7064 28.5175 97.549 28.3371 97.3724 28.1528C97.2035 27.9608 97.0346 27.7881 96.8656 27.6345L97.5221 26.9664C97.6988 27.12 97.8715 27.2851 98.0405 27.4617Z" fill="white"/>
</svg>
